<svg id="Layer_1" data-name="Layer 1" xmlns="http://www.w3.org/2000/svg" viewBox="0 0 158.5 158.53"><defs><style>.cls-1{fill:#010101;}.cls-2{fill:#fff;}</style></defs><path class="cls-1" d="M332,525.26H310V510.4c0-6.26,3.07-12.37,12.92-12.37h10V478.52A121.72,121.72,0,0,0,315.19,477c-18.1,0-29.93,11-29.93,30.84v17.45H265.13v22.91h20.13v55.38h0v0h0a80.2,80.2,0,0,0,12.39,1,78.81,78.81,0,0,0,12.37-1V548.18h18.47Z" transform="translate(-218.39 -446.01)"/><path class="cls-2" d="M285.26,603.55V548.17H265.13V525.26h20.13V507.81c0-19.86,11.83-30.84,29.93-30.84a121.72,121.72,0,0,1,17.74,1.55V498h-10c-9.85,0-12.92,6.11-12.92,12.37v14.86h22l-3.51,22.92H310v55.37a79.36,79.36,0,0,0,62.92-53.5v0c.34-1,.66-2.11,1-3.18l.09-.32c.28-1,.54-2,.79-3.08,0-.15.07-.31.1-.46.23-1,.45-2,.64-3.08l.09-.47c.18-1.05.36-2.1.5-3.16,0-.11,0-.23.05-.35a79.25,79.25,0,1,0-157.06,0c0,.12,0,.24,0,.36.15,1.05.32,2.09.51,3.13l.09.51c.19,1,.4,2,.63,3l.12.5c.24,1,.49,2,.77,3l.11.38c.3,1.05.61,2.09,1,3.12l0,.1A79.37,79.37,0,0,0,285.26,603.55Z" transform="translate(-218.39 -446.01)"/></svg>