<svg id="Layer_1" data-name="Layer 1" xmlns="http://www.w3.org/2000/svg" viewBox="0 0 173.55 173.55"><defs><style>.cls-1{fill:#fff;}</style></defs><path class="cls-1" d="M298,309.52c-23.57,0-26.52.11-35.77.52s-15.54,1.89-21.07,4a44.38,44.38,0,0,0-25.38,25.38c-2.15,5.54-3.61,11.83-4,21.07s-.53,12.2-.53,35.77.11,26.52.53,35.78,1.88,15.53,4,21.06a44.38,44.38,0,0,0,25.38,25.38c5.54,2.14,11.83,3.61,21.07,4s12.2.52,35.77.52,26.52-.11,35.77-.52,15.54-1.9,21.07-4a44.38,44.38,0,0,0,25.38-25.38c2.14-5.53,3.61-11.83,4-21.06s.53-12.2.53-35.78-.11-26.51-.53-35.77-1.89-15.54-4-21.07a44.38,44.38,0,0,0-25.38-25.38c-5.53-2.14-11.83-3.61-21.07-4S321.57,309.52,298,309.52Zm0,15.62c23.16,0,25.92.11,35.07.51,8.46.4,13.05,1.8,16.11,3a28.56,28.56,0,0,1,16.47,16.47c1.18,3.05,2.6,7.64,3,16.1.41,9.16.5,11.9.5,35.07s-.11,25.93-.53,35.07c-.44,8.46-1.86,13.06-3.05,16.11a27.52,27.52,0,0,1-6.5,10,27.09,27.09,0,0,1-10,6.48c-3,1.19-7.7,2.6-16.16,3-9.21.41-11.92.5-35.14.5s-25.93-.1-35.13-.53c-8.47-.44-13.14-1.85-16.17-3a26.79,26.79,0,0,1-10-6.5,26.31,26.31,0,0,1-6.51-10c-1.2-3-2.6-7.7-3-16.16-.33-9.11-.44-11.92-.44-35s.11-25.93.44-35.15c.44-8.46,1.84-13.11,3-16.15a28.82,28.82,0,0,1,16.48-16.48c3-1.2,7.6-2.61,16.06-3,9.22-.32,11.93-.43,35.13-.43Zm0,26.59a44.56,44.56,0,1,0,44.56,44.56A44.56,44.56,0,0,0,298,351.73Zm0,73.49a28.93,28.93,0,1,1,28.93-28.93A28.93,28.93,0,0,1,298,425.22ZM354.74,350a10.42,10.42,0,1,1-10.42-10.41A10.42,10.42,0,0,1,354.74,350Z" transform="translate(-211.22 -309.52)"/></svg>